<?xml version="1.0" standalone="no"?>
<!DOCTYPE svg PUBLIC "-//W3C//DTD SVG 20010904//EN"
 "http://www.w3.org/TR/2001/REC-SVG-20010904/DTD/svg10.dtd">
<svg version="1.0" xmlns="http://www.w3.org/2000/svg"
 width="24.000000pt" height="24.000000pt" viewBox="0 0 24.000000 24.000000"
 preserveAspectRatio="xMidYMid meet">

<g transform="translate(0.000000,24.000000) scale(0.100000,-0.100000)"
fill="#000000" stroke="none">
<path d="M65 193 c-52 -35 -55 -39 -55 -99 0 -69 13 -79 110 -79 97 0 110 10
110 79 0 28 -4 56 -8 62 -12 18 -86 64 -102 64 -8 0 -33 -12 -55 -27z m104
-13 c42 -31 42 -31 39 -88 -2 -45 -7 -58 -20 -60 -14 -3 -18 3 -18 24 0 31
-25 64 -48 64 -26 0 -52 -32 -52 -62 0 -23 -4 -29 -17 -26 -14 2 -19 15 -21
60 -3 57 -3 57 39 88 23 16 45 30 49 30 4 0 26 -14 49 -30z m-21 -117 c3 -31
1 -33 -27 -33 -27 0 -31 3 -31 28 0 35 8 44 35 40 15 -2 21 -12 23 -35z"/>
</g>
</svg>
