<?xml version="1.0" standalone="no"?>
<!DOCTYPE svg PUBLIC "-//W3C//DTD SVG 20010904//EN"
 "http://www.w3.org/TR/2001/REC-SVG-20010904/DTD/svg10.dtd">
<svg version="1.0" xmlns="http://www.w3.org/2000/svg"
 width="24.000000pt" height="24.000000pt" viewBox="0 0 24.000000 24.000000"
 preserveAspectRatio="xMidYMid meet">

<g transform="translate(0.000000,24.000000) scale(0.100000,-0.100000)"
fill="#000000" stroke="none">
<path d="M145 210 c-4 -6 -1 -9 7 -8 7 2 12 -2 11 -9 -2 -7 4 -10 13 -6 8 3
14 6 12 7 -2 1 -10 7 -20 14 -11 9 -18 10 -23 2z"/>
<path d="M75 169 c-4 -6 -13 -8 -19 -6 -16 6 -8 -44 8 -55 17 -12 23 -9 29 13
3 12 0 22 -9 26 -11 4 -12 9 -3 19 6 8 9 14 6 14 -3 0 -9 -5 -12 -11z m5 -45
c0 -8 -4 -12 -10 -9 -5 3 -10 13 -10 21 0 8 5 12 10 9 6 -3 10 -13 10 -21z"/>
<path d="M31 64 c0 -11 3 -14 6 -6 3 7 2 16 -1 19 -3 4 -6 -2 -5 -13z"/>
<path d="M84 26 c11 -9 29 -16 40 -15 17 1 16 2 -6 9 -14 4 -32 11 -40 15 -7
3 -4 -1 6 -9z"/>
</g>
</svg>
